<?xml version="1.0" standalone="no"?>
<!DOCTYPE svg PUBLIC "-//W3C//DTD SVG 20010904//EN"
 "http://www.w3.org/TR/2001/REC-SVG-20010904/DTD/svg10.dtd">
<svg version="1.0" xmlns="http://www.w3.org/2000/svg"
 width="260.000000pt" height="260.000000pt" viewBox="0 0 260.000000 260.000000"
 preserveAspectRatio="xMidYMid meet">
<metadata>
Created by potrace 1.11, written by Peter Selinger 2001-2013
</metadata>
<g transform="translate(0.000000,260.000000) scale(0.100000,-0.100000)"
fill="#000000" stroke="none">
<path d="M1196 1735 c-114 -40 -136 -156 -50 -262 l34 -42 -42 -29 c-90 -62
-128 -113 -133 -175 -8 -113 79 -187 225 -189 76 -1 131 16 186 58 l47 36 52
-52 c45 -45 53 -49 65 -36 14 18 12 21 -51 89 l-37 40 23 51 c35 81 38 104 16
116 -18 9 -21 5 -35 -43 -29 -101 -29 -101 -136 14 -52 56 -95 105 -95 110 0
4 21 23 47 41 65 46 90 82 96 135 9 83 -37 134 -134 146 -22 2 -57 -1 -78 -8z
m148 -64 c26 -26 26 -89 1 -122 -18 -24 -104 -89 -118 -89 -25 0 -87 99 -87
138 0 33 25 76 52 89 51 26 117 19 152 -16z m-100 -303 c15 -18 64 -70 108
-116 81 -82 81 -82 62 -103 -56 -64 -196 -88 -281 -49 -45 20 -83 69 -83 108
0 27 24 88 42 105 17 18 112 86 118 87 3 0 18 -15 34 -32z"/>
<path d="M1934 1734 c-163 -42 -266 -175 -266 -344 0 -96 28 -172 86 -237 117
-129 336 -155 478 -57 72 51 38 82 -38 35 -160 -98 -373 -35 -450 134 -37 80
-34 186 6 265 89 171 316 217 483 98 14 -11 19 -10 27 2 15 23 13 26 -35 58
-76 50 -199 70 -291 46z"/>
<path d="M390 1391 l0 -351 24 0 c31 0 32 6 31 127 l-2 101 151 4 c141 3 155
5 206 30 133 67 167 240 69 351 -62 71 -95 80 -301 85 l-178 4 0 -351z m367
284 c82 -31 121 -104 110 -201 -7 -62 -42 -109 -101 -135 -41 -17 -72 -21
-186 -23 l-136 -2 1 190 c1 105 3 191 4 191 171 0 272 -7 308 -20z"/>
</g>
</svg>
