<?xml version="1.0" standalone="no"?>
<!DOCTYPE svg PUBLIC "-//W3C//DTD SVG 20010904//EN"
 "http://www.w3.org/TR/2001/REC-SVG-20010904/DTD/svg10.dtd">
<svg version="1.0" xmlns="http://www.w3.org/2000/svg"
 width="260.000000pt" height="260.000000pt" viewBox="0 0 260.000000 260.000000"
 preserveAspectRatio="xMidYMid meet">
<metadata>
Created by potrace 1.11, written by Peter Selinger 2001-2013
</metadata>
<g transform="translate(0.000000,260.000000) scale(0.100000,-0.100000)"
fill="#000000" stroke="none">
<path d="M532 2581 c-212 -53 -382 -194 -472 -395 -59 -131 -59 -137 -59 -886
0 -590 2 -695 16 -755 61 -270 270 -476 539 -530 69 -13 170 -15 779 -12 783
3 737 -1 892 78 177 89 311 264 356 464 24 105 24 1405 0 1510 -59 262 -251
458 -516 526 -65 17 -126 18 -766 18 -634 0 -702 -2 -769 -18z"/>
</g>
</svg>
